<svg width="14" height="14" viewBox="0 0 14 14" fill="none" xmlns="http://www.w3.org/2000/svg">
<path fill-rule="evenodd" clip-rule="evenodd" d="M7 14C10.866 14 14 10.866 14 7C14 3.13401 10.866 0 7 0C3.13401 0 0 3.13401 0 7C0 10.866 3.13401 14 7 14ZM7.54167 8.125L9.875 10.4583C9.95139 10.5347 10.0486 10.5729 10.1667 10.5729C10.2847 10.5729 10.3819 10.5347 10.4583 10.4583C10.5417 10.375 10.5833 10.2778 10.5833 10.1667C10.5833 10.0556 10.5451 9.9618 10.4688 9.88542L8.125 7.54167C8.29167 7.33333 8.42361 7.09375 8.52083 6.82292C8.61806 6.55208 8.66667 6.26389 8.66667 5.95833C8.66667 5.20139 8.40458 4.56069 7.88042 4.03625C7.35597 3.51208 6.71528 3.25 5.95833 3.25C5.20139 3.25 4.56083 3.51208 4.03667 4.03625C3.51222 4.56069 3.25 5.20139 3.25 5.95833C3.25 6.71528 3.51222 7.35597 4.03667 7.88042C4.56083 8.40458 5.20139 8.66667 5.95833 8.66667C6.26389 8.66667 6.55208 8.61806 6.82292 8.52083C7.09375 8.42361 7.33333 8.29167 7.54167 8.125ZM7.28667 7.28667C6.92194 7.65111 6.47917 7.83333 5.95833 7.83333C5.4375 7.83333 4.99472 7.65111 4.63 7.28667C4.26556 6.92194 4.08333 6.47917 4.08333 5.95833C4.08333 5.4375 4.26556 4.99472 4.63 4.63C4.99472 4.26556 5.4375 4.08333 5.95833 4.08333C6.47917 4.08333 6.92194 4.26556 7.28667 4.63C7.65111 4.99472 7.83333 5.4375 7.83333 5.95833C7.83333 6.47917 7.65111 6.92194 7.28667 7.28667Z" fill="white"/>
</svg>
